<svg xmlns="http://www.w3.org/2000/svg" width="1440" height="260"><path d="M769,125L728,117L731,183Z" fill="#3cd2c2" stroke="#3cd2c2" stroke-width="1.51"/><path d="M731,183L774,168L769,125Z" fill="#3cd4c0" stroke="#3cd4c0" stroke-width="1.51"/><path d="M728,117L702,189L731,183Z" fill="#3cd3c0" stroke="#3cd3c0" stroke-width="1.51"/><path d="M731,183L752,212L774,168Z" fill="#3cd6bd" stroke="#3cd6bd" stroke-width="1.51"/><path d="M702,189L752,212L731,183Z" fill="#3cd6bd" stroke="#3cd6bd" stroke-width="1.51"/><path d="M702,189L683,205L752,212Z" fill="#3cd6bd" stroke="#3cd6bd" stroke-width="1.51"/><path d="M655,161L683,205L702,189Z" fill="#3cd4bf" stroke="#3cd4bf" stroke-width="1.51"/><path d="M774,168L830,148L769,125Z" fill="#3cd4c0" stroke="#3cd4c0" stroke-width="1.51"/><path d="M858,225L830,148L774,168Z" fill="#3cd7bc" stroke="#3cd7bc" stroke-width="1.51"/><path d="M728,117L655,161L702,189Z" fill="#3cd2c1" stroke="#3cd2c1" stroke-width="1.51"/><path d="M769,125L768,56L728,117Z" fill="#3bcfc5" stroke="#3bcfc5" stroke-width="1.51"/><path d="M728,117L653,112L655,161Z" fill="#3bd0c4" stroke="#3bd0c4" stroke-width="1.51"/><path d="M826,82L768,56L769,125Z" fill="#3bcfc5" stroke="#3bcfc5" stroke-width="1.51"/><path d="M768,56L742,52L728,117Z" fill="#3acdc7" stroke="#3acdc7" stroke-width="1.51"/><path d="M650,61L653,112L728,117Z" fill="#3bcdc7" stroke="#3bcdc7" stroke-width="1.51"/><path d="M830,148L826,82L769,125Z" fill="#3cd2c2" stroke="#3cd2c2" stroke-width="1.51"/><path d="M752,212L858,225L774,168Z" fill="#3cd8bb" stroke="#3cd8bb" stroke-width="1.51"/><path d="M713,283L771,255L752,212Z" fill="#3bdbb8" stroke="#3bdbb8" stroke-width="1.51"/><path d="M653,112L606,122L655,161Z" fill="#3bcfc5" stroke="#3bcfc5" stroke-width="1.51"/><path d="M742,52L650,61L728,117Z" fill="#3accc8" stroke="#3accc8" stroke-width="1.51"/><path d="M683,205L713,283L752,212Z" fill="#3cd9ba" stroke="#3cd9ba" stroke-width="1.51"/><path d="M636,288L713,283L683,205Z" fill="#3cdab9" stroke="#3cdab9" stroke-width="1.51"/><path d="M771,255L858,225L752,212Z" fill="#3cdab8" stroke="#3cdab8" stroke-width="1.51"/><path d="M830,148L887,125L826,82Z" fill="#3cd3c1" stroke="#3cd3c1" stroke-width="1.51"/><path d="M838,297L858,225L771,255Z" fill="#3bddb5" stroke="#3bddb5" stroke-width="1.51"/><path d="M599,72L606,122L653,112Z" fill="#3acdc8" stroke="#3acdc8" stroke-width="1.51"/><path d="M655,161L608,204L683,205Z" fill="#3cd4bf" stroke="#3cd4bf" stroke-width="1.51"/><path d="M585,180L608,204L655,161Z" fill="#3cd3c1" stroke="#3cd3c1" stroke-width="1.51"/><path d="M897,130L887,125L830,148Z" fill="#3cd5bf" stroke="#3cd5bf" stroke-width="1.51"/><path d="M895,57L837,23L826,82Z" fill="#3acec6" stroke="#3acec6" stroke-width="1.51"/><path d="M858,225L897,130L830,148Z" fill="#3cd7bc" stroke="#3cd7bc" stroke-width="1.51"/><path d="M826,82L837,23L768,56Z" fill="#3acdc8" stroke="#3acdc8" stroke-width="1.51"/><path d="M768,56L743,-28L742,52Z" fill="#39c9cb" stroke="#39c9cb" stroke-width="1.51"/><path d="M742,52L686,-22L650,61Z" fill="#38c9cc" stroke="#38c9cc" stroke-width="1.51"/><path d="M895,57L826,82L887,125Z" fill="#3bd1c3" stroke="#3bd1c3" stroke-width="1.51"/><path d="M606,122L585,180L655,161Z" fill="#3bd1c4" stroke="#3bd1c4" stroke-width="1.51"/><path d="M650,61L599,72L653,112Z" fill="#3acbc9" stroke="#3acbc9" stroke-width="1.51"/><path d="M606,122L541,161L585,180Z" fill="#3bd0c5" stroke="#3bd0c5" stroke-width="1.51"/><path d="M608,204L636,288L683,205Z" fill="#3cd7bc" stroke="#3cd7bc" stroke-width="1.51"/><path d="M601,282L636,288L608,204Z" fill="#3cd9ba" stroke="#3cd9ba" stroke-width="1.51"/><path d="M787,321L838,297L771,255Z" fill="#3bdfb3" stroke="#3bdfb3" stroke-width="1.51"/><path d="M858,225L912,233L897,130Z" fill="#3cd9b9" stroke="#3cd9b9" stroke-width="1.51"/><path d="M736,326L771,255L713,283Z" fill="#3bdeb4" stroke="#3bdeb4" stroke-width="1.51"/><path d="M660,350L736,326L713,283Z" fill="#3bdfb2" stroke="#3bdfb2" stroke-width="1.51"/><path d="M736,326L787,321L771,255Z" fill="#3bdfb3" stroke="#3bdfb3" stroke-width="1.51"/><path d="M777,-34L743,-28L768,56Z" fill="#38c8ce" stroke="#38c8ce" stroke-width="1.51"/><path d="M650,61L609,-41L599,72Z" fill="#38c7ce" stroke="#38c7ce" stroke-width="1.51"/><path d="M897,130L895,57L887,125Z" fill="#3cd2c1" stroke="#3cd2c1" stroke-width="1.51"/><path d="M743,-28L686,-22L742,52Z" fill="#37c7ce" stroke="#37c7ce" stroke-width="1.51"/><path d="M837,23L777,-34L768,56Z" fill="#39c9cb" stroke="#39c9cb" stroke-width="1.51"/><path d="M881,-31L841,-9L837,23Z" fill="#39c9cb" stroke="#39c9cb" stroke-width="1.51"/><path d="M743,-28L681,-44L686,-22Z" fill="#35c4d2" stroke="#35c4d2" stroke-width="1.51"/><path d="M841,-9L777,-34L837,23Z" fill="#38c8cc" stroke="#38c8cc" stroke-width="1.51"/><path d="M905,279L912,233L858,225Z" fill="#3bddb5" stroke="#3bddb5" stroke-width="1.51"/><path d="M897,130L968,95L895,57Z" fill="#3cd3c1" stroke="#3cd3c1" stroke-width="1.51"/><path d="M544,259L601,282L608,204Z" fill="#3bd7bc" stroke="#3bd7bc" stroke-width="1.51"/><path d="M636,288L660,350L713,283Z" fill="#3bdeb4" stroke="#3bdeb4" stroke-width="1.51"/><path d="M585,180L544,259L608,204Z" fill="#3cd4bf" stroke="#3cd4bf" stroke-width="1.51"/><path d="M530,74L541,161L606,122Z" fill="#3accc8" stroke="#3accc8" stroke-width="1.51"/><path d="M838,297L905,279L858,225Z" fill="#3bdeb3" stroke="#3bdeb3" stroke-width="1.51"/><path d="M787,321L822,336L838,297Z" fill="#3ae1af" stroke="#3ae1af" stroke-width="1.51"/><path d="M736,326L822,336L787,321Z" fill="#3ae2af" stroke="#3ae2af" stroke-width="1.51"/><path d="M554,4L546,45L599,72Z" fill="#37c7ce" stroke="#37c7ce" stroke-width="1.51"/><path d="M748,-85L681,-44L743,-28Z" fill="#34c3d3" stroke="#34c3d3" stroke-width="1.51"/><path d="M899,307L905,279L838,297Z" fill="#3ae1b0" stroke="#3ae1b0" stroke-width="1.51"/><path d="M777,-34L748,-85L743,-28Z" fill="#35c4d1" stroke="#35c4d1" stroke-width="1.51"/><path d="M841,-9L797,-55L777,-34Z" fill="#37c6cf" stroke="#37c6cf" stroke-width="1.51"/><path d="M606,359L660,350L636,288Z" fill="#3bdfb3" stroke="#3bdfb3" stroke-width="1.51"/><path d="M736,326L660,350L822,336Z" fill="#3ae1b0" stroke="#3ae1b0" stroke-width="1.51"/><path d="M822,336L899,307L838,297Z" fill="#3ae2af" stroke="#3ae2af" stroke-width="1.51"/><path d="M599,72L530,74L606,122Z" fill="#39cbca" stroke="#39cbca" stroke-width="1.51"/><path d="M609,-41L650,61L686,-22Z" fill="#36c5d0" stroke="#36c5d0" stroke-width="1.51"/><path d="M951,278L961,203L912,233Z" fill="#3bdeb4" stroke="#3bdeb4" stroke-width="1.51"/><path d="M912,233L961,203L897,130Z" fill="#3cdab9" stroke="#3cdab9" stroke-width="1.51"/><path d="M951,278L912,233L905,279Z" fill="#3be0b2" stroke="#3be0b2" stroke-width="1.51"/><path d="M961,203L968,164L897,130Z" fill="#3cd9bb" stroke="#3cd9bb" stroke-width="1.51"/><path d="M546,45L530,74L599,72Z" fill="#38c8cd" stroke="#38c8cd" stroke-width="1.51"/><path d="M841,-9L851,-79L797,-55Z" fill="#37c6d0" stroke="#37c6d0" stroke-width="1.51"/><path d="M895,57L881,-31L837,23Z" fill="#39ccc9" stroke="#39ccc9" stroke-width="1.51"/><path d="M960,-11L881,-31L895,57Z" fill="#3acbc9" stroke="#3acbc9" stroke-width="1.51"/><path d="M601,282L606,359L636,288Z" fill="#3bddb5" stroke="#3bddb5" stroke-width="1.51"/><path d="M520,211L544,259L585,180Z" fill="#3cd4bf" stroke="#3cd4bf" stroke-width="1.51"/><path d="M520,211L585,180L541,161Z" fill="#3cd1c2" stroke="#3cd1c2" stroke-width="1.51"/><path d="M490,179L520,211L541,161Z" fill="#3bd0c3" stroke="#3bd0c3" stroke-width="1.51"/><path d="M968,164L968,95L897,130Z" fill="#3cd6be" stroke="#3cd6be" stroke-width="1.51"/><path d="M681,-44L609,-41L686,-22Z" fill="#35c3d3" stroke="#35c3d3" stroke-width="1.51"/><path d="M606,-98L609,-41L681,-44Z" fill="#32c0d5" stroke="#32c0d5" stroke-width="1.51"/><path d="M797,-55L748,-85L777,-34Z" fill="#35c3d2" stroke="#35c3d2" stroke-width="1.51"/><path d="M851,-79L748,-85L797,-55Z" fill="#35c3d2" stroke="#35c3d2" stroke-width="1.51"/><path d="M609,-41L554,4L599,72Z" fill="#36c5d0" stroke="#36c5d0" stroke-width="1.51"/><path d="M546,45L504,45L530,74Z" fill="#37c7ce" stroke="#37c7ce" stroke-width="1.51"/><path d="M899,307L951,278L905,279Z" fill="#3ae2b0" stroke="#3ae2b0" stroke-width="1.51"/><path d="M961,203L994,222L968,164Z" fill="#3cdbb7" stroke="#3cdbb7" stroke-width="1.51"/><path d="M660,350L606,359L822,336Z" fill="#3ae1b0" stroke="#3ae1b0" stroke-width="1.51"/><path d="M540,354L606,359L601,282Z" fill="#3bddb5" stroke="#3bddb5" stroke-width="1.51"/><path d="M881,-31L851,-79L841,-9Z" fill="#37c7ce" stroke="#37c7ce" stroke-width="1.51"/><path d="M875,-92L851,-79L881,-31Z" fill="#36c5d1" stroke="#36c5d1" stroke-width="1.51"/><path d="M520,211L478,227L544,259Z" fill="#3cd4bf" stroke="#3cd4bf" stroke-width="1.51"/><path d="M544,259L540,354L601,282Z" fill="#3cdab8" stroke="#3cdab8" stroke-width="1.51"/><path d="M468,95L490,179L541,161Z" fill="#3bcdc7" stroke="#3bcdc7" stroke-width="1.51"/><path d="M468,95L541,161L530,74Z" fill="#39cbca" stroke="#39cbca" stroke-width="1.51"/><path d="M554,4L504,45L546,45Z" fill="#36c5d0" stroke="#36c5d0" stroke-width="1.51"/><path d="M968,95L976,32L895,57Z" fill="#3bd1c4" stroke="#3bd1c4" stroke-width="1.51"/><path d="M994,32L976,32L968,95Z" fill="#3bd0c3" stroke="#3bd0c3" stroke-width="1.51"/><path d="M968,164L1004,107L968,95Z" fill="#3cd6bd" stroke="#3cd6bd" stroke-width="1.51"/><path d="M951,278L994,222L961,203Z" fill="#3bdeb4" stroke="#3bdeb4" stroke-width="1.51"/><path d="M1016,163L1004,107L968,164Z" fill="#3cd8bb" stroke="#3cd8bb" stroke-width="1.51"/><path d="M976,32L960,-11L895,57Z" fill="#3bcec7" stroke="#3bcec7" stroke-width="1.51"/><path d="M980,4L960,-11L976,32Z" fill="#3acdc8" stroke="#3acdc8" stroke-width="1.51"/><path d="M951,278L1000,314L994,222Z" fill="#3ae1b0" stroke="#3ae1b0" stroke-width="1.51"/><path d="M899,307L939,335L951,278Z" fill="#3ae3ae" stroke="#3ae3ae" stroke-width="1.51"/><path d="M822,336L939,335L899,307Z" fill="#39e4ad" stroke="#39e4ad" stroke-width="1.51"/><path d="M1061,345L939,335L822,336Z" fill="#38e6aa" stroke="#38e6aa" stroke-width="1.51"/><path d="M994,222L1016,163L968,164Z" fill="#3cdbb8" stroke="#3cdbb8" stroke-width="1.51"/><path d="M851,-79L875,-92L748,-85Z" fill="#35c3d3" stroke="#35c3d3" stroke-width="1.51"/><path d="M950,-96L875,-92L881,-31Z" fill="#36c5d0" stroke="#36c5d0" stroke-width="1.51"/><path d="M490,179L478,227L520,211Z" fill="#3cd2c2" stroke="#3cd2c2" stroke-width="1.51"/><path d="M421,236L478,227L396,202Z" fill="#3cd2c2" stroke="#3cd2c2" stroke-width="1.51"/><path d="M1072,76L994,32L1004,107Z" fill="#3cd3c1" stroke="#3cd3c1" stroke-width="1.51"/><path d="M1004,107L994,32L968,95Z" fill="#3bd3c1" stroke="#3bd3c1" stroke-width="1.51"/><path d="M994,32L980,4L976,32Z" fill="#3acec6" stroke="#3acec6" stroke-width="1.51"/><path d="M960,-11L950,-96L881,-31Z" fill="#38c8cd" stroke="#38c8cd" stroke-width="1.51"/><path d="M504,45L468,95L530,74Z" fill="#38c8cd" stroke="#38c8cd" stroke-width="1.51"/><path d="M609,-41L520,-63L554,4Z" fill="#33c1d5" stroke="#33c1d5" stroke-width="1.51"/><path d="M554,4L486,-35L504,45Z" fill="#35c3d3" stroke="#35c3d3" stroke-width="1.51"/><path d="M404,16L416,98L468,95Z" fill="#37c6cf" stroke="#37c6cf" stroke-width="1.51"/><path d="M748,-85L606,-98L681,-44Z" fill="#32c0d6" stroke="#32c0d6" stroke-width="1.51"/><path d="M875,-92L606,-98L748,-85Z" fill="#32c0d6" stroke="#32c0d6" stroke-width="1.51"/><path d="M484,296L540,354L544,259Z" fill="#3cdab8" stroke="#3cdab8" stroke-width="1.51"/><path d="M478,227L484,296L544,259Z" fill="#3cd6bc" stroke="#3cd6bc" stroke-width="1.51"/><path d="M939,335L1000,314L951,278Z" fill="#39e4ad" stroke="#39e4ad" stroke-width="1.51"/><path d="M994,222L1062,230L1016,163Z" fill="#3bddb5" stroke="#3bddb5" stroke-width="1.51"/><path d="M606,-98L520,-63L609,-41Z" fill="#31bfd8" stroke="#31bfd8" stroke-width="1.51"/><path d="M520,-63L486,-35L554,4Z" fill="#32c0d6" stroke="#32c0d6" stroke-width="1.51"/><path d="M484,296L474,350L540,354Z" fill="#3bdcb6" stroke="#3bdcb6" stroke-width="1.51"/><path d="M478,227L449,269L484,296Z" fill="#3cd6bd" stroke="#3cd6bd" stroke-width="1.51"/><path d="M421,236L449,269L478,227Z" fill="#3cd4bf" stroke="#3cd4bf" stroke-width="1.51"/><path d="M875,-92L950,-96L606,-98Z" fill="#33c2d4" stroke="#33c2d4" stroke-width="1.51"/><path d="M1024,-51L950,-96L960,-11Z" fill="#38c8cc" stroke="#38c8cc" stroke-width="1.51"/><path d="M1024,-51L960,-11L980,4Z" fill="#39cbca" stroke="#39cbca" stroke-width="1.51"/><path d="M1091,155L1072,76L1004,107Z" fill="#3cd6bc" stroke="#3cd6bc" stroke-width="1.51"/><path d="M1068,257L1062,230L994,222Z" fill="#3be0b2" stroke="#3be0b2" stroke-width="1.51"/><path d="M1000,314L1035,302L994,222Z" fill="#3ae2af" stroke="#3ae2af" stroke-width="1.51"/><path d="M1061,345L1035,302L1000,314Z" fill="#38e6aa" stroke="#38e6aa" stroke-width="1.51"/><path d="M468,95L407,161L490,179Z" fill="#3accc8" stroke="#3accc8" stroke-width="1.51"/><path d="M404,16L468,95L504,45Z" fill="#37c5d0" stroke="#37c5d0" stroke-width="1.51"/><path d="M396,202L478,227L490,179Z" fill="#3bd1c3" stroke="#3bd1c3" stroke-width="1.51"/><path d="M417,322L474,350L484,296Z" fill="#3cdab8" stroke="#3cdab8" stroke-width="1.51"/><path d="M540,354L294,347L606,359Z" fill="#3bddb4" stroke="#3bddb4" stroke-width="1.51"/><path d="M417,322L484,296L449,269Z" fill="#3cd8bb" stroke="#3cd8bb" stroke-width="1.51"/><path d="M416,98L407,161L468,95Z" fill="#39cacb" stroke="#39cacb" stroke-width="1.51"/><path d="M1091,155L1004,107L1016,163Z" fill="#3cd9ba" stroke="#3cd9ba" stroke-width="1.51"/><path d="M1075,9L1024,-51L980,4Z" fill="#3accc8" stroke="#3accc8" stroke-width="1.51"/><path d="M1062,230L1091,155L1016,163Z" fill="#3cdcb6" stroke="#3cdcb6" stroke-width="1.51"/><path d="M1035,302L1068,257L994,222Z" fill="#3ae1b0" stroke="#3ae1b0" stroke-width="1.51"/><path d="M1075,9L980,4L994,32Z" fill="#3bcec6" stroke="#3bcec6" stroke-width="1.51"/><path d="M486,-35L437,-11L504,45Z" fill="#34c2d4" stroke="#34c2d4" stroke-width="1.51"/><path d="M442,-101L437,-11L486,-35Z" fill="#30bed9" stroke="#30bed9" stroke-width="1.51"/><path d="M1072,76L1076,50L994,32Z" fill="#3bd2c2" stroke="#3bd2c2" stroke-width="1.51"/><path d="M1137,60L1076,50L1072,76Z" fill="#3cd4c0" stroke="#3cd4c0" stroke-width="1.51"/><path d="M1115,175L1091,155L1062,230Z" fill="#3bddb5" stroke="#3bddb5" stroke-width="1.51"/><path d="M407,161L396,202L490,179Z" fill="#3bcfc6" stroke="#3bcfc6" stroke-width="1.51"/><path d="M421,236L417,322L449,269Z" fill="#3cd6bd" stroke="#3cd6bd" stroke-width="1.51"/><path d="M391,175L396,202L407,161Z" fill="#3bcec6" stroke="#3bcec6" stroke-width="1.51"/><path d="M351,83L407,161L416,98Z" fill="#39c9cd" stroke="#39c9cd" stroke-width="1.51"/><path d="M351,83L391,175L407,161Z" fill="#39cbca" stroke="#39cbca" stroke-width="1.51"/><path d="M1120,1L1075,9L1076,50Z" fill="#3bd0c4" stroke="#3bd0c4" stroke-width="1.51"/><path d="M1076,50L1075,9L994,32Z" fill="#3bd0c4" stroke="#3bd0c4" stroke-width="1.51"/><path d="M606,-98L473,-94L520,-63Z" fill="#2ebcda" stroke="#2ebcda" stroke-width="1.51"/><path d="M520,-63L473,-94L486,-35Z" fill="#2fbdd9" stroke="#2fbdd9" stroke-width="1.51"/><path d="M394,-18L404,16L437,-11Z" fill="#32c0d6" stroke="#32c0d6" stroke-width="1.51"/><path d="M437,-11L404,16L504,45Z" fill="#34c3d3" stroke="#34c3d3" stroke-width="1.51"/><path d="M356,294L421,236L396,202Z" fill="#3cd3c1" stroke="#3cd3c1" stroke-width="1.51"/><path d="M356,294L417,322L421,236Z" fill="#3cd6bd" stroke="#3cd6bd" stroke-width="1.51"/><path d="M394,-18L391,29L404,16Z" fill="#33c1d5" stroke="#33c1d5" stroke-width="1.51"/><path d="M404,16L391,29L416,98Z" fill="#36c4d1" stroke="#36c4d1" stroke-width="1.51"/><path d="M1146,118L1137,60L1072,76Z" fill="#3cd6bd" stroke="#3cd6bd" stroke-width="1.51"/><path d="M1140,193L1115,175L1062,230Z" fill="#3bdfb4" stroke="#3bdfb4" stroke-width="1.51"/><path d="M1035,302L1061,345L1068,257Z" fill="#38e5ab" stroke="#38e5ab" stroke-width="1.51"/><path d="M1068,257L1140,193L1062,230Z" fill="#3be0b2" stroke="#3be0b2" stroke-width="1.51"/><path d="M939,335L1061,345L1000,314Z" fill="#38e6aa" stroke="#38e6aa" stroke-width="1.51"/><path d="M606,359L1061,345L822,336Z" fill="#39e4ad" stroke="#39e4ad" stroke-width="1.51"/><path d="M390,-56L394,-18L437,-11Z" fill="#30bed8" stroke="#30bed8" stroke-width="1.51"/><path d="M473,-94L442,-101L486,-35Z" fill="#2dbcdb" stroke="#2dbcdb" stroke-width="1.51"/><path d="M606,-98L442,-101L473,-94Z" fill="#2dbbdc" stroke="#2dbbdc" stroke-width="1.51"/><path d="M950,-96L442,-101L606,-98Z" fill="#30bed8" stroke="#30bed8" stroke-width="1.51"/><path d="M318,60L351,83L391,29Z" fill="#35c4d2" stroke="#35c4d2" stroke-width="1.51"/><path d="M391,29L351,83L416,98Z" fill="#36c5d0" stroke="#36c5d0" stroke-width="1.51"/><path d="M315,299L356,294L291,241Z" fill="#3cd4c0" stroke="#3cd4c0" stroke-width="1.51"/><path d="M1135,280L1140,193L1068,257Z" fill="#3ae2af" stroke="#3ae2af" stroke-width="1.51"/><path d="M1146,118L1072,76L1091,155Z" fill="#3cd8bb" stroke="#3cd8bb" stroke-width="1.51"/><path d="M1075,9L1066,-88L1024,-51Z" fill="#39cbca" stroke="#39cbca" stroke-width="1.51"/><path d="M1024,-51L1066,-88L950,-96Z" fill="#38c7ce" stroke="#38c7ce" stroke-width="1.51"/><path d="M1113,-73L1066,-88L1075,9Z" fill="#39cbca" stroke="#39cbca" stroke-width="1.51"/><path d="M1146,118L1091,155L1115,175Z" fill="#3cdbb8" stroke="#3cdbb8" stroke-width="1.51"/><path d="M1153,182L1146,118L1115,175Z" fill="#3bdcb6" stroke="#3bdcb6" stroke-width="1.51"/><path d="M1137,60L1120,1L1076,50Z" fill="#3bd2c2" stroke="#3bd2c2" stroke-width="1.51"/><path d="M1061,345L1096,349L1068,257Z" fill="#37e7a9" stroke="#37e7a9" stroke-width="1.51"/><path d="M606,359L1096,349L1061,345Z" fill="#38e7aa" stroke="#38e7aa" stroke-width="1.51"/><path d="M300,-30L318,60L391,29Z" fill="#33c0d6" stroke="#33c0d6" stroke-width="1.51"/><path d="M442,-101L390,-56L437,-11Z" fill="#2ebcda" stroke="#2ebcda" stroke-width="1.51"/><path d="M1140,193L1153,182L1115,175Z" fill="#3bdeb4" stroke="#3bdeb4" stroke-width="1.51"/><path d="M1207,218L1153,182L1140,193Z" fill="#3be0b2" stroke="#3be0b2" stroke-width="1.51"/><path d="M417,322L351,325L474,350Z" fill="#3cdab9" stroke="#3cdab9" stroke-width="1.51"/><path d="M314,144L396,202L391,175Z" fill="#3acdc8" stroke="#3acdc8" stroke-width="1.51"/><path d="M1096,349L1135,280L1068,257Z" fill="#38e6ab" stroke="#38e6ab" stroke-width="1.51"/><path d="M351,83L314,144L391,175Z" fill="#38c9cb" stroke="#38c9cb" stroke-width="1.51"/><path d="M308,84L314,144L351,83Z" fill="#37c6cf" stroke="#37c6cf" stroke-width="1.51"/><path d="M356,294L351,325L417,322Z" fill="#3cd8bb" stroke="#3cd8bb" stroke-width="1.51"/><path d="M315,299L351,325L356,294Z" fill="#3cd6bd" stroke="#3cd6bd" stroke-width="1.51"/><path d="M1120,1L1113,-73L1075,9Z" fill="#3acdc7" stroke="#3acdc7" stroke-width="1.51"/><path d="M1188,-75L1113,-73L1120,1Z" fill="#39ccc8" stroke="#39ccc8" stroke-width="1.51"/><path d="M1137,60L1167,66L1120,1Z" fill="#3bd3c0" stroke="#3bd3c0" stroke-width="1.51"/><path d="M1146,118L1167,66L1137,60Z" fill="#3cd6bd" stroke="#3cd6bd" stroke-width="1.51"/><path d="M1193,115L1167,66L1146,118Z" fill="#3cd8bb" stroke="#3cd8bb" stroke-width="1.51"/><path d="M300,-30L391,29L394,-18Z" fill="#31bfd7" stroke="#31bfd7" stroke-width="1.51"/><path d="M318,60L308,84L351,83Z" fill="#35c4d1" stroke="#35c4d1" stroke-width="1.51"/><path d="M1167,66L1203,-23L1120,1Z" fill="#3bd1c2" stroke="#3bd1c2" stroke-width="1.51"/><path d="M1153,182L1193,115L1146,118Z" fill="#3cdbb7" stroke="#3cdbb7" stroke-width="1.51"/><path d="M1229,164L1193,115L1153,182Z" fill="#3bddb5" stroke="#3bddb5" stroke-width="1.51"/><path d="M291,241L396,202L314,144Z" fill="#3bcec6" stroke="#3bcec6" stroke-width="1.51"/><path d="M291,241L356,294L396,202Z" fill="#3bd2c2" stroke="#3bd2c2" stroke-width="1.51"/><path d="M275,221L291,241L314,144Z" fill="#3acdc7" stroke="#3acdc7" stroke-width="1.51"/><path d="M1135,280L1192,260L1140,193Z" fill="#3ae3ae" stroke="#3ae3ae" stroke-width="1.51"/><path d="M1203,323L1192,260L1135,280Z" fill="#38e7a9" stroke="#38e7a9" stroke-width="1.51"/><path d="M1192,260L1207,218L1140,193Z" fill="#3ae2af" stroke="#3ae2af" stroke-width="1.51"/><path d="M291,241L270,259L315,299Z" fill="#3cd2c1" stroke="#3cd2c1" stroke-width="1.51"/><path d="M239,145L275,221L314,144Z" fill="#39caca" stroke="#39caca" stroke-width="1.51"/><path d="M390,-56L300,-30L394,-18Z" fill="#2fbdda" stroke="#2fbdda" stroke-width="1.51"/><path d="M256,57L253,82L308,84Z" fill="#35c3d3" stroke="#35c3d3" stroke-width="1.51"/><path d="M308,84L253,82L314,144Z" fill="#37c6d0" stroke="#37c6d0" stroke-width="1.51"/><path d="M300,-88L300,-30L390,-56Z" fill="#2bbadc" stroke="#2bbadc" stroke-width="1.51"/><path d="M275,221L270,259L291,241Z" fill="#3bd0c4" stroke="#3bd0c4" stroke-width="1.51"/><path d="M181,252L270,259L275,221Z" fill="#3bd0c5" stroke="#3bd0c5" stroke-width="1.51"/><path d="M1237,236L1229,164L1207,218Z" fill="#3ae2b0" stroke="#3ae2b0" stroke-width="1.51"/><path d="M1207,218L1229,164L1153,182Z" fill="#3bdfb2" stroke="#3bdfb2" stroke-width="1.51"/><path d="M1256,57L1203,-23L1167,66Z" fill="#3cd4c0" stroke="#3cd4c0" stroke-width="1.51"/><path d="M315,299L294,347L351,325Z" fill="#3cd7bb" stroke="#3cd7bb" stroke-width="1.51"/><path d="M351,325L294,347L474,350Z" fill="#3cdab9" stroke="#3cdab9" stroke-width="1.51"/><path d="M474,350L294,347L540,354Z" fill="#3bdcb6" stroke="#3bdcb6" stroke-width="1.51"/><path d="M237,313L294,347L315,299Z" fill="#3cd7bd" stroke="#3cd7bd" stroke-width="1.51"/><path d="M1256,57L1167,66L1193,115Z" fill="#3cd7bc" stroke="#3cd7bc" stroke-width="1.51"/><path d="M1096,349L1203,323L1135,280Z" fill="#36e8a8" stroke="#36e8a8" stroke-width="1.51"/><path d="M1192,260L1237,236L1207,218Z" fill="#39e4ad" stroke="#39e4ad" stroke-width="1.51"/><path d="M300,-30L269,13L318,60Z" fill="#31bfd7" stroke="#31bfd7" stroke-width="1.51"/><path d="M256,57L308,84L318,60Z" fill="#35c3d3" stroke="#35c3d3" stroke-width="1.51"/><path d="M269,13L256,57L318,60Z" fill="#33c1d5" stroke="#33c1d5" stroke-width="1.51"/><path d="M1203,-23L1188,-75L1120,1Z" fill="#3bcec6" stroke="#3bcec6" stroke-width="1.51"/><path d="M1113,-73L1188,-75L1066,-88Z" fill="#39c9cb" stroke="#39c9cb" stroke-width="1.51"/><path d="M1203,323L1219,301L1192,260Z" fill="#37e8a8" stroke="#37e8a8" stroke-width="1.51"/><path d="M1219,301L1237,236L1192,260Z" fill="#38e6aa" stroke="#38e6aa" stroke-width="1.51"/><path d="M243,-64L223,14L269,13Z" fill="#2ebcda" stroke="#2ebcda" stroke-width="1.51"/><path d="M442,-101L300,-88L390,-56Z" fill="#2abadd" stroke="#2abadd" stroke-width="1.51"/><path d="M1203,323L1216,323L1219,301Z" fill="#35eaa6" stroke="#35eaa6" stroke-width="1.51"/><path d="M1219,301L1271,296L1237,236Z" fill="#37e7a9" stroke="#37e7a9" stroke-width="1.51"/><path d="M1283,355L1216,323L1203,323Z" fill="#34eca3" stroke="#34eca3" stroke-width="1.51"/><path d="M215,172L239,145L172,128Z" fill="#38c7ce" stroke="#38c7ce" stroke-width="1.51"/><path d="M253,82L239,145L314,144Z" fill="#37c7ce" stroke="#37c7ce" stroke-width="1.51"/><path d="M1306,167L1255,101L1229,164Z" fill="#3bddb4" stroke="#3bddb4" stroke-width="1.51"/><path d="M1229,164L1255,101L1193,115Z" fill="#3cdcb7" stroke="#3cdcb7" stroke-width="1.51"/><path d="M1203,-23L1255,-91L1188,-75Z" fill="#3acdc8" stroke="#3acdc8" stroke-width="1.51"/><path d="M1255,101L1256,57L1193,115Z" fill="#3cd9ba" stroke="#3cd9ba" stroke-width="1.51"/><path d="M270,259L237,313L315,299Z" fill="#3cd4c0" stroke="#3cd4c0" stroke-width="1.51"/><path d="M239,145L215,172L275,221Z" fill="#3acbca" stroke="#3acbca" stroke-width="1.51"/><path d="M182,110L239,145L253,82Z" fill="#36c5d0" stroke="#36c5d0" stroke-width="1.51"/><path d="M182,110L253,82L189,44Z" fill="#34c2d4" stroke="#34c2d4" stroke-width="1.51"/><path d="M223,14L256,57L269,13Z" fill="#31bfd7" stroke="#31bfd7" stroke-width="1.51"/><path d="M181,252L237,313L270,259Z" fill="#3bd2c2" stroke="#3bd2c2" stroke-width="1.51"/><path d="M243,-64L269,13L300,-30Z" fill="#2dbbdb" stroke="#2dbbdb" stroke-width="1.51"/><path d="M300,-88L243,-64L300,-30Z" fill="#29b9de" stroke="#29b9de" stroke-width="1.51"/><path d="M1308,121L1275,35L1256,57Z" fill="#3cd8ba" stroke="#3cd8ba" stroke-width="1.51"/><path d="M1256,57L1275,35L1203,-23Z" fill="#3bd4c0" stroke="#3bd4c0" stroke-width="1.51"/><path d="M1308,121L1256,57L1255,101Z" fill="#3bdab8" stroke="#3bdab8" stroke-width="1.51"/><path d="M1237,236L1296,204L1229,164Z" fill="#3ae2af" stroke="#3ae2af" stroke-width="1.51"/><path d="M1216,323L1271,296L1219,301Z" fill="#36eaa6" stroke="#36eaa6" stroke-width="1.51"/><path d="M1275,35L1263,-27L1203,-23Z" fill="#3bd2c2" stroke="#3bd2c2" stroke-width="1.51"/><path d="M1271,296L1296,204L1237,236Z" fill="#38e6ab" stroke="#38e6ab" stroke-width="1.51"/><path d="M215,172L183,193L275,221Z" fill="#3acbc9" stroke="#3acbc9" stroke-width="1.51"/><path d="M154,153L183,193L215,172Z" fill="#38c9cc" stroke="#38c9cc" stroke-width="1.51"/><path d="M189,44L253,82L256,57Z" fill="#33c1d5" stroke="#33c1d5" stroke-width="1.51"/><path d="M189,44L256,57L223,14Z" fill="#31bfd7" stroke="#31bfd7" stroke-width="1.51"/><path d="M1296,204L1306,167L1229,164Z" fill="#3ae1b1" stroke="#3ae1b1" stroke-width="1.51"/><path d="M1273,-65L1255,-91L1263,-27Z" fill="#3acec6" stroke="#3acec6" stroke-width="1.51"/><path d="M161,25L189,44L223,14Z" fill="#30bed9" stroke="#30bed9" stroke-width="1.51"/><path d="M1263,-27L1255,-91L1203,-23Z" fill="#3acec6" stroke="#3acec6" stroke-width="1.51"/><path d="M1188,-75L1255,-91L1066,-88Z" fill="#39cacb" stroke="#39cacb" stroke-width="1.51"/><path d="M1066,-88L1255,-91L950,-96Z" fill="#38c8ce" stroke="#38c8ce" stroke-width="1.51"/><path d="M1285,-29L1263,-27L1275,35Z" fill="#3bd2c1" stroke="#3bd2c1" stroke-width="1.51"/><path d="M1306,167L1308,121L1255,101Z" fill="#3bddb5" stroke="#3bddb5" stroke-width="1.51"/><path d="M1340,-29L1285,-29L1275,35Z" fill="#3cd3c1" stroke="#3cd3c1" stroke-width="1.51"/><path d="M183,193L181,252L275,221Z" fill="#3acdc7" stroke="#3acdc7" stroke-width="1.51"/><path d="M172,246L181,252L183,193Z" fill="#3acdc7" stroke="#3acdc7" stroke-width="1.51"/><path d="M182,110L172,128L239,145Z" fill="#36c6d0" stroke="#36c6d0" stroke-width="1.51"/><path d="M104,138L172,128L102,99Z" fill="#35c4d2" stroke="#35c4d2" stroke-width="1.51"/><path d="M1285,-29L1273,-65L1263,-27Z" fill="#3bd0c4" stroke="#3bd0c4" stroke-width="1.51"/><path d="M243,-64L209,-57L223,14Z" fill="#2bbadd" stroke="#2bbadd" stroke-width="1.51"/><path d="M104,138L154,153L172,128Z" fill="#37c6d0" stroke="#37c6d0" stroke-width="1.51"/><path d="M300,-88L209,-57L243,-64Z" fill="#27b8df" stroke="#27b8df" stroke-width="1.51"/><path d="M1216,323L1283,355L1271,296Z" fill="#34eba4" stroke="#34eba4" stroke-width="1.51"/><path d="M1271,296L1331,272L1296,204Z" fill="#38e7a9" stroke="#38e7a9" stroke-width="1.51"/><path d="M1296,204L1348,197L1306,167Z" fill="#3ae2af" stroke="#3ae2af" stroke-width="1.51"/><path d="M1096,349L1283,355L1203,323Z" fill="#34eba4" stroke="#34eba4" stroke-width="1.51"/><path d="M606,359L1283,355L1096,349Z" fill="#36e8a7" stroke="#36e8a7" stroke-width="1.51"/><path d="M181,252L189,326L237,313Z" fill="#3cd3c0" stroke="#3cd3c0" stroke-width="1.51"/><path d="M121,222L172,246L183,193Z" fill="#3accc8" stroke="#3accc8" stroke-width="1.51"/><path d="M172,246L189,326L181,252Z" fill="#3bd1c3" stroke="#3bd1c3" stroke-width="1.51"/><path d="M237,313L189,326L294,347Z" fill="#3cd6bd" stroke="#3cd6bd" stroke-width="1.51"/><path d="M161,25L182,110L189,44Z" fill="#32c0d6" stroke="#32c0d6" stroke-width="1.51"/><path d="M172,128L154,153L215,172Z" fill="#37c7ce" stroke="#37c7ce" stroke-width="1.51"/><path d="M170,-54L161,25L223,14Z" fill="#2dbbdb" stroke="#2dbbdb" stroke-width="1.51"/><path d="M1374,134L1350,106L1308,121Z" fill="#3bdeb4" stroke="#3bdeb4" stroke-width="1.51"/><path d="M1353,339L1331,272L1271,296Z" fill="#35eba4" stroke="#35eba4" stroke-width="1.51"/><path d="M1331,272L1348,197L1296,204Z" fill="#39e5ab" stroke="#39e5ab" stroke-width="1.51"/><path d="M1308,121L1350,106L1275,35Z" fill="#3cdab8" stroke="#3cdab8" stroke-width="1.51"/><path d="M209,-57L170,-54L223,14Z" fill="#2ab9dd" stroke="#2ab9dd" stroke-width="1.51"/><path d="M64,-80L170,-54L209,-57Z" fill="#24b6e1" stroke="#24b6e1" stroke-width="1.51"/><path d="M1285,-29L1337,-46L1273,-65Z" fill="#3bd0c4" stroke="#3bd0c4" stroke-width="1.51"/><path d="M1374,134L1308,121L1306,167Z" fill="#3bdfb3" stroke="#3bdfb3" stroke-width="1.51"/><path d="M1357,36L1340,-29L1275,35Z" fill="#3cd5bf" stroke="#3cd5bf" stroke-width="1.51"/><path d="M1273,-65L1337,-46L1255,-91Z" fill="#3bcec7" stroke="#3bcec7" stroke-width="1.51"/><path d="M102,99L172,128L182,110Z" fill="#35c3d2" stroke="#35c3d2" stroke-width="1.51"/><path d="M170,-54L137,3L161,25Z" fill="#2cbadd" stroke="#2cbadd" stroke-width="1.51"/><path d="M1350,106L1357,36L1275,35Z" fill="#3cd8ba" stroke="#3cd8ba" stroke-width="1.51"/><path d="M1391,24L1357,36L1350,106Z" fill="#3cd9ba" stroke="#3cd9ba" stroke-width="1.51"/><path d="M1418,-64L1337,-46L1340,-29Z" fill="#3bd1c3" stroke="#3bd1c3" stroke-width="1.51"/><path d="M1340,-29L1337,-46L1285,-29Z" fill="#3bd1c3" stroke="#3bd1c3" stroke-width="1.51"/><path d="M154,153L121,222L183,193Z" fill="#39c9cb" stroke="#39c9cb" stroke-width="1.51"/><path d="M95,328L119,353L189,326Z" fill="#3cd4bf" stroke="#3cd4bf" stroke-width="1.51"/><path d="M104,138L121,222L154,153Z" fill="#38c7ce" stroke="#38c7ce" stroke-width="1.51"/><path d="M1403,177L1374,134L1348,197Z" fill="#3ae2af" stroke="#3ae2af" stroke-width="1.51"/><path d="M1348,197L1374,134L1306,167Z" fill="#3ae1b1" stroke="#3ae1b1" stroke-width="1.51"/><path d="M1395,245L1390,197L1348,197Z" fill="#38e5ab" stroke="#38e5ab" stroke-width="1.51"/><path d="M1283,355L1353,339L1271,296Z" fill="#33eda2" stroke="#33eda2" stroke-width="1.51"/><path d="M102,99L182,110L161,25Z" fill="#32c1d5" stroke="#32c1d5" stroke-width="1.51"/><path d="M96,36L102,99L161,25Z" fill="#30bed8" stroke="#30bed8" stroke-width="1.51"/><path d="M1395,245L1348,197L1331,272Z" fill="#38e7aa" stroke="#38e7aa" stroke-width="1.51"/><path d="M1407,123L1391,24L1350,106Z" fill="#3cdcb7" stroke="#3cdcb7" stroke-width="1.51"/><path d="M95,328L189,326L172,246Z" fill="#3bd2c2" stroke="#3bd2c2" stroke-width="1.51"/><path d="M189,326L119,353L294,347Z" fill="#3cd6bd" stroke="#3cd6bd" stroke-width="1.51"/><path d="M294,347L119,353L606,359Z" fill="#3cdab8" stroke="#3cdab8" stroke-width="1.51"/><path d="M95,328L172,246L76,257Z" fill="#3bd0c4" stroke="#3bd0c4" stroke-width="1.51"/><path d="M76,257L172,246L121,222Z" fill="#3acdc8" stroke="#3acdc8" stroke-width="1.51"/><path d="M73,209L121,222L104,138Z" fill="#38c8cc" stroke="#38c8cc" stroke-width="1.51"/><path d="M137,3L96,36L161,25Z" fill="#2ebcdb" stroke="#2ebcdb" stroke-width="1.51"/><path d="M107,-33L96,36L137,3Z" fill="#2bbadd" stroke="#2bbadd" stroke-width="1.51"/><path d="M1401,310L1395,245L1331,272Z" fill="#35eaa5" stroke="#35eaa5" stroke-width="1.51"/><path d="M1403,177L1348,197L1390,197Z" fill="#39e3ad" stroke="#39e3ad" stroke-width="1.51"/><path d="M1407,123L1350,106L1374,134Z" fill="#3bdeb3" stroke="#3bdeb3" stroke-width="1.51"/><path d="M1357,36L1391,24L1340,-29Z" fill="#3cd6be" stroke="#3cd6be" stroke-width="1.51"/><path d="M1464,219L1403,177L1390,197Z" fill="#39e5ab" stroke="#39e5ab" stroke-width="1.51"/><path d="M170,-54L107,-33L137,3Z" fill="#29b9de" stroke="#29b9de" stroke-width="1.51"/><path d="M1403,177L1407,123L1374,134Z" fill="#3ae0b1" stroke="#3ae0b1" stroke-width="1.51"/><path d="M73,209L104,138L56,141Z" fill="#37c6cf" stroke="#37c6cf" stroke-width="1.51"/><path d="M56,141L104,138L102,99Z" fill="#35c3d3" stroke="#35c3d3" stroke-width="1.51"/><path d="M73,209L76,257L121,222Z" fill="#39cbca" stroke="#39cbca" stroke-width="1.51"/><path d="M1474,51L1391,24L1407,123Z" fill="#3bdbb7" stroke="#3bdbb7" stroke-width="1.51"/><path d="M1395,245L1464,219L1390,197Z" fill="#37e7aa" stroke="#37e7aa" stroke-width="1.51"/><path d="M1353,339L1401,310L1331,272Z" fill="#33eda3" stroke="#33eda3" stroke-width="1.51"/><path d="M36,109L56,141L102,99Z" fill="#34c2d4" stroke="#34c2d4" stroke-width="1.51"/><path d="M73,209L49,236L76,257Z" fill="#39cbca" stroke="#39cbca" stroke-width="1.51"/><path d="M48,67L102,99L96,36Z" fill="#31bed8" stroke="#31bed8" stroke-width="1.51"/><path d="M-13,144L49,236L73,209Z" fill="#38c7cd" stroke="#38c7cd" stroke-width="1.51"/><path d="M76,257L12,330L95,328Z" fill="#3bd0c4" stroke="#3bd0c4" stroke-width="1.51"/><path d="M56,141L-13,144L73,209Z" fill="#36c5d0" stroke="#36c5d0" stroke-width="1.51"/><path d="M41,-21L48,67L96,36Z" fill="#2dbbdc" stroke="#2dbbdc" stroke-width="1.51"/><path d="M1433,-32L1340,-29L1391,24Z" fill="#3bd4bf" stroke="#3bd4bf" stroke-width="1.51"/><path d="M1433,-32L1418,-64L1340,-29Z" fill="#3bd2c2" stroke="#3bd2c2" stroke-width="1.51"/><path d="M1337,-46L1441,-94L1255,-91Z" fill="#3bcfc6" stroke="#3bcfc6" stroke-width="1.51"/><path d="M1433,-32L1391,24L1474,51Z" fill="#3cd7bc" stroke="#3cd7bc" stroke-width="1.51"/><path d="M48,67L36,109L102,99Z" fill="#32c0d6" stroke="#32c0d6" stroke-width="1.51"/><path d="M49,236L40,251L76,257Z" fill="#39ccc9" stroke="#39ccc9" stroke-width="1.51"/><path d="M-38,217L40,251L49,236Z" fill="#39cacb" stroke="#39cacb" stroke-width="1.51"/><path d="M1467,133L1407,123L1403,177Z" fill="#3ae1b0" stroke="#3ae1b0" stroke-width="1.51"/><path d="M1401,310L1445,283L1395,245Z" fill="#34eba4" stroke="#34eba4" stroke-width="1.51"/><path d="M170,-54L64,-80L107,-33Z" fill="#24b6e2" stroke="#24b6e2" stroke-width="1.51"/><path d="M107,-33L41,-21L96,36Z" fill="#2ab9de" stroke="#2ab9de" stroke-width="1.51"/><path d="M-7,64L-8,124L36,109Z" fill="#31bfd6" stroke="#31bfd6" stroke-width="1.51"/><path d="M300,-88L64,-80L209,-57Z" fill="#25b6e1" stroke="#25b6e1" stroke-width="1.51"/><path d="M442,-101L64,-80L300,-88Z" fill="#25b7e0" stroke="#25b7e0" stroke-width="1.51"/><path d="M64,-80L41,-21L107,-33Z" fill="#24b6e1" stroke="#24b6e1" stroke-width="1.51"/><path d="M1464,219L1467,133L1403,177Z" fill="#39e4ad" stroke="#39e4ad" stroke-width="1.51"/><path d="M1445,283L1464,219L1395,245Z" fill="#35eaa6" stroke="#35eaa6" stroke-width="1.51"/><path d="M1484,113L1474,51L1407,123Z" fill="#3bdeb4" stroke="#3bdeb4" stroke-width="1.51"/><path d="M1433,-32L1460,-30L1418,-64Z" fill="#3bd3c0" stroke="#3bd3c0" stroke-width="1.51"/><path d="M1484,113L1407,123L1467,133Z" fill="#3be0b2" stroke="#3be0b2" stroke-width="1.51"/><path d="M1474,51L1460,-30L1433,-32Z" fill="#3cd7bd" stroke="#3cd7bd" stroke-width="1.51"/><path d="M1460,-30L1441,-94L1418,-64Z" fill="#3bd2c2" stroke="#3bd2c2" stroke-width="1.51"/><path d="M1418,-64L1441,-94L1337,-46Z" fill="#3bd0c4" stroke="#3bd0c4" stroke-width="1.51"/><path d="M1255,-91L1441,-94L950,-96Z" fill="#39caca" stroke="#39caca" stroke-width="1.51"/><path d="M950,-96L1441,-94L442,-101Z" fill="#36c5d1" stroke="#36c5d1" stroke-width="1.51"/><path d="M1523,143L1484,113L1467,133Z" fill="#3ae1b0" stroke="#3ae1b0" stroke-width="1.51"/><path d="M1464,219L1513,196L1467,133Z" fill="#38e5ab" stroke="#38e5ab" stroke-width="1.51"/><path d="M1540,276L1513,196L1464,219Z" fill="#36eaa6" stroke="#36eaa6" stroke-width="1.51"/><path d="M1401,310L1462,337L1445,283Z" fill="#32eea1" stroke="#32eea1" stroke-width="1.51"/><path d="M1353,339L1462,337L1401,310Z" fill="#31ef9f" stroke="#31ef9f" stroke-width="1.51"/><path d="M1283,355L1462,337L1353,339Z" fill="#31ef9f" stroke="#31ef9f" stroke-width="1.51"/><path d="M-7,64L36,109L48,67Z" fill="#31bed8" stroke="#31bed8" stroke-width="1.51"/><path d="M36,109L-8,124L56,141Z" fill="#33c2d4" stroke="#33c2d4" stroke-width="1.51"/><path d="M40,251L12,330L76,257Z" fill="#3bcec6" stroke="#3bcec6" stroke-width="1.51"/><path d="M95,328L12,330L119,353Z" fill="#3cd3c0" stroke="#3cd3c0" stroke-width="1.51"/><path d="M-7,310L12,330L40,251Z" fill="#3bcfc5" stroke="#3bcfc5" stroke-width="1.51"/><path d="M-48,-7L-7,64L41,-21Z" fill="#29b9de" stroke="#29b9de" stroke-width="1.51"/><path d="M41,-21L-7,64L48,67Z" fill="#2cbbdb" stroke="#2cbbdb" stroke-width="1.51"/><path d="M-81,141L-13,144L-8,124Z" fill="#33c1d4" stroke="#33c1d4" stroke-width="1.51"/><path d="M-8,124L-13,144L56,141Z" fill="#34c2d3" stroke="#34c2d3" stroke-width="1.51"/><path d="M64,-80L13,-61L41,-21Z" fill="#21b4e3" stroke="#21b4e3" stroke-width="1.51"/><path d="M-15,284L-7,310L40,251Z" fill="#3acec6" stroke="#3acec6" stroke-width="1.51"/><path d="M-38,217L-15,284L40,251Z" fill="#39cbca" stroke="#39cbca" stroke-width="1.51"/><path d="M1536,117L1504,25L1474,51Z" fill="#3bddb5" stroke="#3bddb5" stroke-width="1.51"/><path d="M1474,51L1504,25L1460,-30Z" fill="#3cd8bb" stroke="#3cd8bb" stroke-width="1.51"/><path d="M1460,-30L1533,-37L1441,-94Z" fill="#3cd3c0" stroke="#3cd3c0" stroke-width="1.51"/><path d="M1536,117L1474,51L1484,113Z" fill="#3bdfb3" stroke="#3bdfb3" stroke-width="1.51"/><path d="M1540,276L1464,219L1445,283Z" fill="#34eba4" stroke="#34eba4" stroke-width="1.51"/><path d="M1462,337L1498,324L1445,283Z" fill="#31ef9f" stroke="#31ef9f" stroke-width="1.51"/><path d="M1536,117L1523,143L1575,111Z" fill="#3ae2af" stroke="#3ae2af" stroke-width="1.51"/><path d="M1513,196L1523,143L1467,133Z" fill="#39e4ad" stroke="#39e4ad" stroke-width="1.51"/><path d="M-15,284L-76,324L-7,310Z" fill="#3bcec6" stroke="#3bcec6" stroke-width="1.51"/><path d="M-13,144L-38,217L49,236Z" fill="#37c7ce" stroke="#37c7ce" stroke-width="1.51"/><path d="M-81,141L-38,217L-13,144Z" fill="#35c4d2" stroke="#35c4d2" stroke-width="1.51"/><path d="M-81,141L-8,124L-90,101Z" fill="#32c0d6" stroke="#32c0d6" stroke-width="1.51"/><path d="M13,-61L-48,-7L41,-21Z" fill="#24b6e2" stroke="#24b6e2" stroke-width="1.51"/><path d="M64,-80L-12,-79L13,-61Z" fill="#1db3e5" stroke="#1db3e5" stroke-width="1.51"/><path d="M442,-101L-12,-79L64,-80Z" fill="#21b5e3" stroke="#21b5e3" stroke-width="1.51"/><path d="M1523,143L1536,117L1484,113Z" fill="#3ae1b0" stroke="#3ae1b0" stroke-width="1.51"/><path d="M1575,111L1523,143L1606,151Z" fill="#39e3ae" stroke="#39e3ae" stroke-width="1.51"/><path d="M-12,-79L-48,-7L13,-61Z" fill="#1fb4e3" stroke="#1fb4e3" stroke-width="1.51"/><path d="M1498,324L1540,276L1445,283Z" fill="#32eea0" stroke="#32eea0" stroke-width="1.51"/><path d="M1571,45L1533,-37L1504,25Z" fill="#3cd9b9" stroke="#3cd9b9" stroke-width="1.51"/><path d="M1504,25L1533,-37L1460,-30Z" fill="#3cd7bd" stroke="#3cd7bd" stroke-width="1.51"/><path d="M1571,45L1504,25L1536,117Z" fill="#3bddb5" stroke="#3bddb5" stroke-width="1.51"/><path d="M-90,101L-8,124L-7,64Z" fill="#30bed8" stroke="#30bed8" stroke-width="1.51"/><path d="M-38,217L-76,282L-15,284Z" fill="#39cbca" stroke="#39cbca" stroke-width="1.51"/><path d="M-103,193L-76,282L-38,217Z" fill="#38c8cd" stroke="#38c8cd" stroke-width="1.51"/><path d="M-7,310L-76,324L12,330Z" fill="#3bd0c4" stroke="#3bd0c4" stroke-width="1.51"/><path d="M-83,-36L-81,52L-48,-7Z" fill="#25b7e1" stroke="#25b7e1" stroke-width="1.51"/><path d="M-48,-7L-81,52L-7,64Z" fill="#2abadd" stroke="#2abadd" stroke-width="1.51"/><path d="M1606,151L1523,143L1513,196Z" fill="#38e5ab" stroke="#38e5ab" stroke-width="1.51"/><path d="M-81,52L-90,101L-7,64Z" fill="#2ebcda" stroke="#2ebcda" stroke-width="1.51"/><path d="M-81,141L-103,193L-38,217Z" fill="#36c4d1" stroke="#36c4d1" stroke-width="1.51"/><path d="M1575,111L1571,45L1536,117Z" fill="#3ae0b2" stroke="#3ae0b2" stroke-width="1.51"/><path d="M-76,282L-76,324L-15,284Z" fill="#3bcdc7" stroke="#3bcdc7" stroke-width="1.51"/><path d="M12,330L-76,324L119,353Z" fill="#3bd2c2" stroke="#3bd2c2" stroke-width="1.51"/><path d="M-103,193L-76,324L-76,282Z" fill="#39caca" stroke="#39caca" stroke-width="1.51"/><path d="M1540,276L1572,268L1513,196Z" fill="#34eba4" stroke="#34eba4" stroke-width="1.51"/><path d="M1588,311L1572,268L1540,276Z" fill="#31efa0" stroke="#31efa0" stroke-width="1.51"/><path d="M1599,-58L1553,-74L1533,-37Z" fill="#3cd5bf" stroke="#3cd5bf" stroke-width="1.51"/><path d="M1533,-37L1553,-74L1441,-94Z" fill="#3bd3c2" stroke="#3bd3c2" stroke-width="1.51"/><path d="M-12,-79L-83,-36L-48,-7Z" fill="#1fb4e4" stroke="#1fb4e4" stroke-width="1.51"/><path d="M-81,52L-83,-36L-90,101Z" fill="#2ab9de" stroke="#2ab9de" stroke-width="1.51"/><path d="M-83,-36L-103,193L-90,101Z" fill="#2ebcda" stroke="#2ebcda" stroke-width="1.51"/><path d="M-90,101L-103,193L-81,141Z" fill="#33c1d5" stroke="#33c1d5" stroke-width="1.51"/><path d="M-83,-36L-83,-66L-103,193Z" fill="#28b8df" stroke="#28b8df" stroke-width="1.51"/><path d="M-12,-79L-83,-66L-83,-36Z" fill="#1bb2e5" stroke="#1bb2e5" stroke-width="1.51"/><path d="M1498,324L1588,311L1540,276Z" fill="#30f09e" stroke="#30f09e" stroke-width="1.51"/><path d="M1605,230L1606,151L1513,196Z" fill="#37e8a8" stroke="#37e8a8" stroke-width="1.51"/><path d="M1575,111L1606,151L1571,45Z" fill="#3ae1b1" stroke="#3ae1b1" stroke-width="1.51"/><path d="M1462,337L1588,311L1498,324Z" fill="#2ff19d" stroke="#2ff19d" stroke-width="1.51"/><path d="M1605,230L1513,196L1572,268Z" fill="#35eba5" stroke="#35eba5" stroke-width="1.51"/><path d="M1571,45L1594,-10L1533,-37Z" fill="#3cd9ba" stroke="#3cd9ba" stroke-width="1.51"/><path d="M1588,311L1605,230L1572,268Z" fill="#33eea1" stroke="#33eea1" stroke-width="1.51"/><path d="M1606,151L1594,-10L1571,45Z" fill="#3bdeb5" stroke="#3bdeb5" stroke-width="1.51"/><path d="M1594,-10L1599,-58L1533,-37Z" fill="#3cd6bd" stroke="#3cd6bd" stroke-width="1.51"/><path d="M1606,151L1599,-58L1594,-10Z" fill="#3cdbb8" stroke="#3cdbb8" stroke-width="1.51"/></svg>